<svg width="18" height="18" viewBox="0 0 18 18" fill="none" xmlns="http://www.w3.org/2000/svg">
<path d="M11.25 6.27759V5.55759C11.25 3.32259 9.6975 2.46759 7.8075 3.65259L5.6175 5.02509C5.3775 5.16759 5.1 5.25009 4.8225 5.25009H3.75C2.25 5.25009 1.5 6.00009 1.5 7.50009V10.5001C1.5 12.0001 2.25 12.7501 3.75 12.7501H5.25" stroke="white" stroke-width="1.5" stroke-linecap="round" stroke-linejoin="round"/>
<path d="M7.8075 14.3474C9.6975 15.5324 11.25 14.6699 11.25 12.4424V9.7124" stroke="white" stroke-width="1.5" stroke-linecap="round" stroke-linejoin="round"/>
<path d="M14.1075 7.06494C14.7825 8.67744 14.58 10.5599 13.5 11.9999" stroke="white" stroke-width="1.5" stroke-linecap="round" stroke-linejoin="round"/>
<path d="M15.8625 5.8501C16.965 8.4676 16.635 11.5276 14.8725 13.8751" stroke="white" stroke-width="1.5" stroke-linecap="round" stroke-linejoin="round"/>
<path d="M16.5 1.5L1.5 16.5" stroke="white" stroke-width="1.5" stroke-linecap="round" stroke-linejoin="round"/>
</svg>
