<svg width="16" height="16" viewBox="0 0 16 16" fill="none" xmlns="http://www.w3.org/2000/svg">
<path d="M1.33337 6.66661V9.33327C1.33337 10.6666 2.00004 11.3333 3.33337 11.3333H4.28671C4.53337 11.3333 4.78004 11.4066 4.99337 11.5333L6.94004 12.7533C8.62004 13.8066 10 13.0399 10 11.0599V4.93994C10 2.95327 8.62004 2.19327 6.94004 3.24661L4.99337 4.46661C4.78004 4.59327 4.53337 4.66661 4.28671 4.66661H3.33337C2.00004 4.66661 1.33337 5.33327 1.33337 6.66661Z" stroke="#292D32" stroke-width="1.5"/>
<path d="M12 5.33325C13.1867 6.91325 13.1867 9.08659 12 10.6666" stroke="#292D32" stroke-width="1.5" stroke-linecap="round" stroke-linejoin="round"/>
<path d="M13.22 3.66675C15.1466 6.23341 15.1466 9.76675 13.22 12.3334" stroke="#292D32" stroke-width="1.5" stroke-linecap="round" stroke-linejoin="round"/>
</svg>
