<svg width="20" height="39" viewBox="0 0 20 39" fill="none" xmlns="http://www.w3.org/2000/svg">
<path d="M13.4792 6.73884L16.0214 7.5L14.0363 2.27932C13.0912 0.91361 11.544 0.0166016 9.7612 0.0166016C6.87628 0.0166016 4.52909 2.36367 4.52909 5.24871C4.52909 7.31198 5.72988 9.09956 7.46906 9.95084V15.7701C7.46906 15.836 7.47583 15.9004 7.48815 15.9629L5.34164 18.7641C5.10213 19.0766 5.0483 19.4253 5.19414 19.7205C5.33986 20.0158 5.6493 20.1852 6.04297 20.1852H13.4792C13.8731 20.1852 14.1825 20.0158 14.3283 19.7205C14.474 19.4251 14.42 19.0765 14.1805 18.7641L11.9258 15.8217C11.9267 15.8045 11.9285 15.7875 11.9285 15.7702V10.0088C13.2917 9.38547 15.2671 7.26134 16.0214 7.5L14.0363 2.27932L15.0214 5C15.5722 5 13.4792 7.05084 13.4792 6.5L14.542 6.73884C14.5422 6.188 14.03 6.73884 13.4792 6.73884ZM9.76131 7.90311C8.29526 7.90311 7.1068 6.71464 7.1068 5.2486C7.1068 3.78266 8.29526 2.59409 9.76131 2.59409C11.2274 2.59409 12.4158 3.78255 12.4158 5.2486C12.4157 6.71464 11.2274 7.90311 9.76131 7.90311ZM15.266 22.4939C14.9848 22.007 14.3487 21.6399 13.7865 21.6399H5.73609C5.17394 21.6399 4.53786 22.0071 4.25662 22.494L0.231178 29.4659C-0.049734 29.9528 -0.049734 30.6873 0.231289 31.1743L4.25662 38.1462C4.53786 38.6331 5.17394 39.0002 5.73609 39.0002H6.59814C7.27128 39.0002 7.81901 38.4524 7.81901 37.7793V36.0325C7.81901 35.3593 7.27128 34.8116 6.59814 34.8116H5.43276C5.3726 34.8116 5.32177 34.7607 5.32177 34.7006V27.8075C5.32177 27.7474 5.3726 27.6966 5.43276 27.6966H14.0899C14.15 27.6966 14.2008 27.7474 14.2008 27.8075V34.7006C14.2008 34.7607 14.15 34.8116 14.0899 34.8116H12.9245C12.2513 34.8116 11.7036 35.3593 11.7036 36.0325V37.7793C11.7036 38.4524 12.2513 39.0002 12.9245 39.0002H13.7866C14.3488 39.0002 14.9849 38.633 15.2661 38.1461L19.2913 31.1743C19.5725 30.6873 19.5725 29.9528 19.2913 29.4658L15.266 22.4939Z" fill="white"/>
</svg>
