<svg width="12" height="12" viewBox="0 0 12 12" fill="none" xmlns="http://www.w3.org/2000/svg">
<path d="M7.41 5.99994L11.71 1.70994C11.8983 1.52164 12.0041 1.26624 12.0041 0.999941C12.0041 0.73364 11.8983 0.478245 11.71 0.289941C11.5217 0.101638 11.2663 -0.00415039 11 -0.00415039C10.7337 -0.00415039 10.4783 0.101638 10.29 0.289941L6 4.58994L1.71 0.289941C1.5217 0.101638 1.2663 -0.00415039 1 -0.00415039C0.733698 -0.00415039 0.478304 0.101638 0.29 0.289941C0.101696 0.478245 -0.00409174 0.73364 -0.00409174 0.999941C-0.00409174 1.26624 0.101696 1.52164 0.29 1.70994L4.59 5.99994L0.29 10.2899C0.196272 10.3829 0.121877 10.4935 0.0711088 10.6154C0.0203401 10.7372 -0.00579834 10.8679 -0.00579834 10.9999C-0.00579834 11.132 0.0203401 11.2627 0.0711088 11.3845C0.121877 11.5064 0.196272 11.617 0.29 11.7099C0.382963 11.8037 0.493564 11.8781 0.615423 11.9288C0.737282 11.9796 0.867988 12.0057 1 12.0057C1.13201 12.0057 1.26272 11.9796 1.38458 11.9288C1.50644 11.8781 1.61704 11.8037 1.71 11.7099L6 7.40994L10.29 11.7099C10.383 11.8037 10.4936 11.8781 10.6154 11.9288C10.7373 11.9796 10.868 12.0057 11 12.0057C11.132 12.0057 11.2627 11.9796 11.3846 11.9288C11.5064 11.8781 11.617 11.8037 11.71 11.7099C11.8037 11.617 11.8781 11.5064 11.9289 11.3845C11.9797 11.2627 12.0058 11.132 12.0058 10.9999C12.0058 10.8679 11.9797 10.7372 11.9289 10.6154C11.8781 10.4935 11.8037 10.3829 11.71 10.2899L7.41 5.99994Z" fill="#3E3B3B"/>
</svg>
