<svg width="24" height="24" viewBox="0 0 24 24" fill="none" xmlns="http://www.w3.org/2000/svg">
<g clip-path="url(#clip0_14_1721)">
<path d="M23.9874 12.2244C23.9874 11.2412 23.9057 10.5236 23.729 9.77954H12.2391V14.2175H18.9834C18.8475 15.3204 18.1132 16.9814 16.4815 18.0975L16.4586 18.246L20.0915 20.9962L20.3432 21.0208C22.6548 18.9346 23.9874 15.8652 23.9874 12.2244Z" fill="#4285F4"/>
<path d="M12.2391 23.9176C15.5432 23.9176 18.3171 22.8545 20.3432 21.0209L16.4815 18.0976C15.4481 18.8018 14.0611 19.2934 12.2391 19.2934C9.00286 19.2934 6.25617 17.2074 5.27705 14.324L5.13353 14.3359L1.35598 17.1927L1.30658 17.3269C3.319 21.2334 7.45267 23.9176 12.2391 23.9176Z" fill="#34A853"/>
<path d="M5.27714 14.324C5.01879 13.58 4.86928 12.7826 4.86928 11.9589C4.86928 11.135 5.01879 10.3378 5.26355 9.59366L5.25671 9.43519L1.43182 6.53247L1.30668 6.59064C0.477262 8.21174 0.00134277 10.0322 0.00134277 11.9589C0.00134277 13.8855 0.477262 15.7059 1.30668 17.327L5.27714 14.324Z" fill="#FBBC05"/>
<path d="M12.239 4.62403C14.537 4.62403 16.0871 5.59401 16.971 6.40461L20.4247 3.10928C18.3036 1.1826 15.5432 0 12.239 0C7.45266 0 3.319 2.68406 1.30658 6.59056L5.26345 9.59359C6.25616 6.7102 9.00285 4.62403 12.239 4.62403Z" fill="#EB4335"/>
</g>
<defs>
<clipPath id="clip0_14_1721">
<rect width="24" height="24" fill="white"/>
</clipPath>
</defs>
</svg>
