<svg width="24" height="24" viewBox="0 0 24 24" fill="none" xmlns="http://www.w3.org/2000/svg">
<path d="M6.33815 14.8444C6.45536 13.8739 6.85336 13.3306 7.60338 12.7736C8.67653 12.0193 10.017 12.446 10.017 12.446V9.91462C10.3429 9.90629 10.669 9.92561 10.9913 9.97235V13.23C10.9913 13.23 9.65119 12.8033 8.57804 13.558C7.82843 14.1146 7.42961 14.6583 7.31282 15.6287C7.30915 16.1557 7.40804 16.8445 7.86343 17.4401C7.75084 17.3824 7.63607 17.3166 7.51914 17.2427C6.516 16.5691 6.33327 15.5585 6.33815 14.8444ZM16.5263 5.23411C15.7881 4.42517 15.5089 3.60842 15.408 3.03467H16.3367C16.3367 3.03467 16.1515 4.53906 17.501 6.01849L17.5197 6.03838C17.156 5.8096 16.8224 5.53956 16.5263 5.23411ZM21 7.52756V10.7197C21 10.7197 19.8149 10.6733 18.9379 10.4501C17.7134 10.1381 16.9263 9.65953 16.9263 9.65953C16.9263 9.65953 16.3827 9.31824 16.3387 9.29445V15.8862C16.3387 16.2532 16.2382 17.1698 15.9317 17.9343C15.5317 18.9343 14.9144 19.5908 14.8008 19.725C14.8008 19.725 14.05 20.6123 12.7253 21.2098C11.5313 21.7489 10.483 21.7352 10.1696 21.7489C10.1696 21.7489 8.35747 21.8207 6.7268 20.7609C6.37418 20.5273 6.04502 20.2628 5.74359 19.9707L5.75173 19.9765C7.38281 21.0363 9.19458 20.9645 9.19458 20.9645C9.50834 20.9509 10.5567 20.9645 11.7503 20.4255C13.0737 19.8279 13.8257 18.9406 13.8257 18.9406C13.9381 18.8064 14.5583 18.15 14.9567 17.1495C15.2623 16.3854 15.3636 15.4684 15.3636 15.1014V8.51047C15.4076 8.53465 15.9509 8.87594 15.9509 8.87594C15.9509 8.87594 16.7383 9.35491 17.9629 9.66655C18.8403 9.88966 20.0249 9.93607 20.0249 9.93607V7.43473C20.4302 7.52561 20.7757 7.55018 21 7.52756Z" fill="#EE1D52"/>
<path d="M20.0253 7.43473V9.93529C20.0253 9.93529 18.8407 9.88888 17.9633 9.66577C16.7387 9.35374 15.9513 8.87516 15.9513 8.87516C15.9513 8.87516 15.408 8.53387 15.364 8.50969V15.1022C15.364 15.4692 15.2635 16.3862 14.9571 17.1503C14.557 18.1507 13.9397 18.8072 13.8261 18.9414C13.8261 18.9414 13.0749 19.8287 11.7507 20.4263C10.5571 20.9653 9.50874 20.9516 9.19498 20.9653C9.19498 20.9653 7.38321 21.0371 5.75213 19.9773L5.74399 19.9715C5.57178 19.8047 5.40968 19.6286 5.25849 19.4441C4.73799 18.8095 4.41894 18.0591 4.33877 17.845C4.33863 17.844 4.33863 17.8431 4.33877 17.8422C4.20976 17.4701 3.93873 16.5765 3.97576 15.711C4.04128 14.184 4.57847 13.2467 4.72049 13.0119C5.09664 12.3716 5.58587 11.7987 6.16641 11.3188C6.6787 10.9046 7.25936 10.5751 7.88458 10.3437C8.56046 10.072 9.28421 9.92637 10.017 9.91462V12.446C10.017 12.446 8.67652 12.0208 7.60378 12.7736C6.85376 13.3306 6.45576 13.8739 6.33855 14.8444C6.33367 15.5585 6.51639 16.5691 7.51873 17.2431C7.63566 17.3172 7.75042 17.383 7.86301 17.4405C8.03812 17.6681 8.25125 17.8664 8.49379 18.0275C9.47293 18.6473 10.2934 18.6906 11.3425 18.288C12.042 18.0189 12.5686 17.4124 12.8128 16.7404C12.9662 16.3207 12.9642 15.8983 12.9642 15.4614V3.03467H15.4059C15.5069 3.60842 15.786 4.42517 16.5243 5.23411C16.8204 5.53956 17.1539 5.8096 17.5176 6.03838C17.6251 6.14954 18.1745 6.69911 18.8797 7.0365C19.2444 7.21089 19.6288 7.34452 20.0253 7.43473Z" fill="black"/>
<path d="M3.36694 17.0676V17.0696L3.42753 17.2338C3.42057 17.2147 3.39806 17.1566 3.36694 17.0676Z" fill="#69C9D0"/>
<path d="M7.88461 10.3437C7.25939 10.5751 6.67873 10.9047 6.16644 11.3188C5.58572 11.7999 5.09661 12.374 4.72093 13.0155C4.57891 13.2495 4.04172 14.1876 3.9762 15.7146C3.93917 16.5801 4.2102 17.4737 4.33921 17.8458C4.33907 17.8467 4.33907 17.8476 4.33921 17.8485C4.4206 18.0607 4.73843 18.8112 5.25893 19.4477C5.41012 19.6322 5.57222 19.8083 5.74443 19.975C5.19268 19.6093 4.7006 19.1671 4.28427 18.6629C3.76825 18.0338 3.45001 17.2912 3.36699 17.072C3.36689 17.0704 3.36689 17.0688 3.36699 17.0673V17.0645C3.23758 16.6928 2.96573 15.7989 3.00358 14.9322C3.0691 13.4052 3.60628 12.4679 3.74831 12.2331C4.12388 11.5915 4.613 11.0174 5.19382 10.5364C5.706 10.1221 6.28669 9.79254 6.91199 9.56131C7.30202 9.40621 7.70833 9.29179 8.1239 9.22002C8.75019 9.11524 9.38984 9.10616 10.0191 9.19311V9.91469C9.2856 9.92619 8.56113 10.0718 7.88461 10.3437Z" fill="#69C9D0"/>
<path d="M15.408 3.03476H12.9662V15.4619C12.9662 15.8987 12.9662 16.32 12.8148 16.7408C12.5682 17.4125 12.0437 18.019 11.3445 18.2881C10.295 18.6922 9.47454 18.6474 8.49581 18.0276C8.25285 17.8673 8.03917 17.6696 7.8634 17.4425C8.69726 17.8688 9.44361 17.8614 10.3682 17.5057C11.067 17.2366 11.5923 16.6301 11.8381 15.958C11.992 15.5383 11.9899 15.1159 11.9899 14.6795V2.25H15.3616C15.3616 2.25 15.3237 2.55891 15.408 3.03476ZM20.0253 6.74328V7.43483C19.6295 7.34447 19.2458 7.21085 18.8817 7.0366C18.1765 6.69921 17.6271 6.14964 17.5197 6.03848C17.6443 6.11693 17.7737 6.1883 17.9071 6.25222C18.7645 6.66255 19.609 6.78502 20.0253 6.74328Z" fill="#69C9D0"/>
</svg>
