<svg width="115" height="108" viewBox="0 0 115 108" fill="none" xmlns="http://www.w3.org/2000/svg">
<path d="M32.9529 8.88716C31.0011 10.1697 29.376 11.8953 28.208 13.9246C27.0402 15.954 26.362 18.2307 26.2283 20.5718V33.8785C26.362 36.2196 27.0402 38.4964 28.208 40.5257C29.376 42.5552 31.0011 44.2807 32.9529 45.5632L46.8666 53.8111C50.5569 55.9556 53.591 54.1961 53.591 49.907V4.81813C53.591 0.529217 50.5569 -1.2302 46.8666 0.914253L32.9529 8.88716Z" fill="#007A4A"/>
<path d="M31.5034 48.4466C29.4833 47.4348 27.2511 46.9075 24.9872 46.9075C22.7233 46.9075 20.4911 47.4348 18.471 48.4466L7.34957 54.7567C5.4545 55.9831 3.87646 57.6331 2.74227 59.5737C1.60828 61.5145 0.949815 63.6916 0.820038 65.9302V81.3894C0.820038 85.4909 3.76642 87.1735 7.34957 85.1228L45.0402 63.5641C48.6235 61.5135 48.6235 58.1745 45.0402 56.1236L31.5034 48.4466Z" fill="#007A4A"/>
<path d="M82.0472 8.88716C83.999 10.1697 85.6241 11.8953 86.7919 13.9246C87.9599 15.954 88.6381 18.2307 88.7716 20.5718V33.8785C88.6381 36.2196 87.9599 38.4964 86.7919 40.5257C85.6241 42.5552 83.999 44.2807 82.0472 45.5632L68.1061 53.8111C64.4159 55.9556 61.4089 54.1961 61.4089 49.907V4.81813C61.4089 0.529217 64.4159 -1.2302 68.1061 0.914253L82.0472 8.88716Z" fill="#007A4A"/>
<path d="M82.2279 48.4466C84.3335 47.4348 86.6599 46.9075 89.0194 46.9075C91.3788 46.9075 93.7054 47.4348 95.811 48.4466L107.402 54.7567C109.374 55.9845 111.015 57.6354 112.192 59.5762C113.369 61.517 114.05 63.6935 114.18 65.9302V81.3894C114.18 85.4909 111.137 87.1735 107.402 85.1228L68.1191 63.5641C64.3843 61.5135 64.3843 58.1745 68.1191 56.1236L82.2279 48.4466Z" fill="#007A4A"/>
<path d="M24.8715 105.959C26.8928 106.97 29.1262 107.496 31.3913 107.496C33.6565 107.496 35.8899 106.97 37.9112 105.959L49.039 99.6315C50.9323 98.3996 52.5071 96.7461 53.6371 94.8038C54.767 92.8612 55.4206 90.6839 55.5455 88.4466V73.0082C55.5455 68.9122 52.6243 67.2319 49.039 69.2798L11.3269 90.8096C7.74165 92.8575 7.74165 96.192 11.3269 98.2399L24.8715 105.959Z" fill="#007A4A"/>
<path d="M57.5 88.4593C57.6323 90.6911 58.3142 92.8625 59.4912 94.799C60.6684 96.7357 62.3076 98.3836 64.2777 99.6106L75.8692 105.96C77.9747 106.97 80.3011 107.496 82.6608 107.496C85.0202 107.496 87.3466 106.97 89.4522 105.96L103.561 98.22C107.296 96.1734 107.296 92.8411 103.561 90.7945L64.2777 69.2792C60.5431 67.2327 57.5 68.9119 57.5 73.005V88.4593Z" fill="#007A4A"/>
</svg>
